<?xml version="1.0" encoding="utf-8"?>
<!-- Generator: Adobe Illustrator 23.0.2, SVG Export Plug-In . SVG Version: 6.00 Build 0)  -->
<svg version="1.1" id="Camada_1" xmlns="http://www.w3.org/2000/svg" xmlns:xlink="http://www.w3.org/1999/xlink" x="0px" y="0px"
	 viewBox="0 0 640 480" style="enable-background:new 0 0 640 480;" xml:space="preserve">
<style type="text/css">
	.st0{fill:#1B1E1D;}
</style>
<g>
	<path class="st0" d="M64.73,155.81h45.91v57.34c-12.47,4.27-26.17,6.4-41.11,6.4c-16.4,0-29.07-4.75-38.02-14.26
		c-8.95-9.51-13.42-23.07-13.42-40.67c0-17.17,4.9-30.54,14.7-40.09c9.8-9.56,23.53-14.33,41.18-14.33c6.69,0,13.01,0.63,18.96,1.89
		c5.94,1.26,11.12,2.86,15.54,4.8l-9.1,22.56c-7.67-3.78-16.08-5.68-25.25-5.68c-8.39,0-14.88,2.73-19.46,8.19
		c-4.58,5.46-6.88,13.26-6.88,23.39c0,9.95,2.07,17.53,6.22,22.74c4.15,5.21,10.13,7.82,17.94,7.82c4.27,0,8.2-0.41,11.79-1.24V178
		H64.73V155.81z"/>
	<path class="st0" d="M197.01,218.1l-5.24-19.94H157.2l-5.38,19.94h-31.58l34.71-106.82h38.35l35.14,106.82H197.01z M185.8,174.58
		l-4.59-17.46c-1.07-3.88-2.36-8.9-3.89-15.06c-1.53-6.16-2.54-10.57-3.02-13.24c-0.44,2.47-1.3,6.55-2.58,12.22
		c-1.29,5.68-4.14,16.86-8.55,33.54H185.8z"/>
	<path class="st0" d="M285.69,218.1l-21.76-76.62h-0.66c1.02,13.05,1.53,23.19,1.53,30.42v46.21h-25.47V111.71h38.27l22.19,75.53
		h0.58l21.76-75.53h38.35V218.1h-26.41v-46.64c0-2.42,0.04-5.12,0.11-8.08c0.07-2.96,0.4-10.21,0.98-21.76h-0.65l-21.47,76.47
		H285.69z"/>
	<path class="st0" d="M445.97,218.1h-63.16V111.71h63.16v23.07h-34.42v16.74h31.87v23.07h-31.87v20.08h34.42V218.1z"/>
</g>
<g>
	<path class="st0" d="M122.5,346.04V239.66h28.74v83.17h40.97v23.21H122.5z"/>
	<path class="st0" d="M308.18,292.71c0,17.9-4.39,31.51-13.17,40.82c-8.78,9.31-21.64,13.97-38.56,13.97
		c-16.69,0-29.48-4.68-38.38-14.04c-8.9-9.36-13.35-22.99-13.35-40.89c0-17.71,4.43-31.23,13.28-40.57
		c8.85-9.34,21.72-14.01,38.6-14.01c16.93,0,29.76,4.63,38.49,13.9C303.81,261.15,308.18,274.76,308.18,292.71z M234.98,292.71
		c0,20.57,7.15,30.85,21.47,30.85c7.28,0,12.67-2.5,16.19-7.49c3.52-5,5.28-12.78,5.28-23.36c0-10.62-1.78-18.47-5.35-23.54
		c-3.57-5.07-8.89-7.6-15.97-7.6C242.18,261.56,234.98,271.94,234.98,292.71z"/>
	<path class="st0" d="M417.09,290.6c0,17.75-4.89,31.43-14.66,41.04c-9.78,9.6-23.52,14.41-41.22,14.41h-34.42V239.66h36.82
		c17.07,0,30.26,4.37,39.55,13.1C412.44,261.49,417.09,274.1,417.09,290.6z M387.25,291.62c0-9.75-1.93-16.98-5.78-21.68
		s-9.71-7.06-17.57-7.06h-8.37v59.59h6.4c8.73,0,15.13-2.53,19.21-7.6C385.22,309.79,387.25,302.04,387.25,291.62z"/>
	<path class="st0" d="M478.27,283.76h45.91v57.34c-12.47,4.27-26.17,6.4-41.11,6.4c-16.4,0-29.07-4.75-38.02-14.26
		c-8.95-9.51-13.42-23.07-13.42-40.67c0-17.17,4.9-30.54,14.7-40.09c9.8-9.56,23.53-14.33,41.18-14.33c6.69,0,13.01,0.63,18.96,1.89
		c5.94,1.26,11.12,2.86,15.53,4.8l-9.09,22.56c-7.67-3.78-16.08-5.68-25.25-5.68c-8.39,0-14.88,2.73-19.46,8.19
		c-4.58,5.46-6.88,13.26-6.88,23.39c0,9.95,2.07,17.53,6.22,22.74c4.15,5.21,10.13,7.82,17.94,7.82c4.27,0,8.2-0.41,11.79-1.24
		v-16.66h-18.99V283.76z"/>
	<path class="st0" d="M608.43,346.04h-63.16V239.66h63.16v23.07h-34.42v16.74h31.87v23.07h-31.87v20.08h34.42V346.04z"/>
</g>
<g>
	<path class="st0" d="M498.71,225.07c-12.63-13.99-25.14-27.84-37.68-41.72c5.44-6.35,10.79-12.6,16.14-18.84
		c0.2-0.23,0.4-0.45,0.59-0.68c1.68-2.04,1.67-2.03-0.13-4.05c-5.63-6.29-11.24-12.6-16.89-18.87c-0.69-0.77-0.69-1.21-0.01-2.02
		c3.4-4,6.67-8.11,10.06-12.11c7.01-8.28,14.07-16.52,21.1-24.78c1.51-1.77,3-3.54,4.69-5.54c10.63,11.22,21.19,22.35,31.87,33.63
		c9.1-10.7,18.27-21.5,27.48-32.33c20.54,20.29,39.39,41.96,58.06,63.94c-18.59,21.44-37.16,42.86-55.83,64.41
		c-10.3-11.4-20.47-22.67-30.79-34.1C517.81,203.03,508.32,213.98,498.71,225.07z M557.7,207.02c0.44-0.48,0.76-0.82,1.07-1.18
		c4.45-5.2,8.91-10.4,13.36-15.6c7.5-8.77,14.99-17.55,22.51-26.3c2.48-2.88,2.53-2.84,0-5.57c-0.09-0.09-0.17-0.19-0.26-0.29
		c-11.05-12.42-22.09-24.84-33.14-37.26c-1.33-1.5-2.68-2.98-4.07-4.52c-0.38,0.4-0.65,0.67-0.9,0.96
		c-4.3,5.21-8.6,10.43-12.9,15.64c-8,9.7-15.97,19.41-24.03,29.07c-0.93,1.12-0.59,1.68,0.19,2.55
		c9.25,10.27,18.48,20.56,27.71,30.85C550.7,199.22,554.14,203.06,557.7,207.02z M497.69,115.09c-1.21,1.45-2.25,2.71-3.29,3.96
		c-5.46,6.6-10.91,13.21-16.39,19.8c-0.77,0.93-0.9,1.58,0.02,2.61c5.86,6.6,11.61,13.3,17.45,19.91c0.7,0.79,0.7,1.22,0.01,2
		c-5.31,6.05-10.58,12.14-15.85,18.23c-1.48,1.71-1.48,1.72-0.14,3.46c0.39,0.51,0.82,1,1.25,1.48
		c5.58,6.22,11.15,12.44,16.74,18.65c0.24,0.27,0.54,0.48,0.78,0.7c0.2-0.13,0.28-0.17,0.33-0.23c6.36-7.42,12.7-14.86,19.11-22.24
		c0.85-0.98,0.77-1.51-0.05-2.41c-5.29-5.84-10.5-11.75-15.78-17.6c-0.64-0.71-0.6-1.14-0.01-1.82c5.77-6.74,11.5-13.51,17.28-20.24
		c0.73-0.85,0.76-1.37-0.01-2.24c-5.62-6.24-11.18-12.53-16.76-18.81C500.87,118.6,499.34,116.92,497.69,115.09z"/>
	<path class="st0" d="M571.51,168.42c-3.43,0.49-7.03-2.97-6.86-6.89c0.17-3.84,2.87-6.67,6.83-6.71c3.86-0.04,6.7,2.92,6.83,6.89
		C578.41,165.02,575.31,168.82,571.51,168.42z"/>
	<path class="st0" d="M545.66,168.6c-3.3,0.39-6.96-2.83-6.78-7.13c0.15-3.63,3.08-6.42,6.96-6.5c3.32-0.07,6.87,2.9,6.7,7.27
		C552.41,165.3,549.42,169.05,545.66,168.6z"/>
	<path class="st0" d="M558.78,168.03c3.23-0.33,6.83,2.77,6.72,7.05c-0.08,3.27-3.2,6.74-6.87,6.6c-3.96-0.15-6.68-2.84-6.72-7.06
		C551.87,170.8,554.72,168.06,558.78,168.03z"/>
	<path class="st0" d="M558.44,155.61c-3.9,0.02-6.69-2.71-6.71-6.58c-0.02-4.1,2.76-6.9,6.77-7.03c3.42-0.11,6.95,2.86,6.84,7.13
		C565.25,152.3,562.26,156.06,558.44,155.61z"/>
	<path class="st0" d="M499.51,165.94c2.25,2.34,4.55,4.72,6.82,7.12c0.21,0.22,0.32,0.61,0.32,0.93c0.06,4.13,0.08,8.27,0.11,12.4
		c0,0.16-0.07,0.32-0.15,0.61c-4.85,0-9.69,0-14.61,0c-0.04-0.28-0.11-0.56-0.11-0.85c-0.05-3.83-0.13-7.66-0.09-11.49
		c0.01-0.68,0.36-1.51,0.83-2C494.76,170.47,496.99,168.38,499.51,165.94z"/>
	<path class="st0" d="M498.77,158.26c-2.22-2.32-4.49-4.68-6.73-7.06c-0.21-0.22-0.37-0.6-0.37-0.91c-0.02-4.3-0.02-8.6-0.02-13.02
		c0.27-0.03,0.59-0.1,0.91-0.11c4.18-0.04,8.35-0.05,12.53-0.13c0.98-0.02,1.35,0.22,1.34,1.28c-0.02,3.79,0.07,7.58,0.08,11.37
		c0,0.47-0.1,1.09-0.41,1.4C503.82,153.4,501.45,155.66,498.77,158.26z"/>
</g>
</svg>
