<?xml version="1.0" encoding="utf-8"?>
<!-- Generator: Adobe Illustrator 24.0.1, SVG Export Plug-In . SVG Version: 6.00 Build 0)  -->
<svg version="1.1" id="Camada_1" xmlns="http://www.w3.org/2000/svg" xmlns:xlink="http://www.w3.org/1999/xlink" x="0px" y="0px"
	 viewBox="0 0 640 480" style="enable-background:new 0 0 640 480;" xml:space="preserve">
<style type="text/css">
	.st0{fill:#E91E63;}
	.st1{fill:#1B1E1D;}
</style>
<g>
	<path class="st0" d="M64.7,155.8h45.9v57.3c-12.5,4.3-26.2,6.4-41.1,6.4c-16.4,0-29.1-4.8-38-14.3s-13.4-23.1-13.4-40.7
		c0-17.2,4.9-30.5,14.7-40.1c9.8-9.6,23.5-14.3,41.2-14.3c6.7,0,13,0.6,19,1.9c5.9,1.3,11.1,2.9,15.5,4.8l-9.1,22.6
		c-7.7-3.8-16.1-5.7-25.3-5.7c-8.4,0-14.9,2.7-19.5,8.2s-6.9,13.3-6.9,23.4c0,9.9,2.1,17.5,6.2,22.7s10.1,7.8,17.9,7.8
		c4.3,0,8.2-0.4,11.8-1.2V178h-19V155.8z"/>
	<path class="st0" d="M197,218.1l-5.2-19.9h-34.6l-5.4,19.9h-31.6l34.7-106.8h38.4l35.1,106.8H197z M185.8,174.6l-4.6-17.5
		c-1.1-3.9-2.4-8.9-3.9-15.1s-2.5-10.6-3-13.2c-0.4,2.5-1.3,6.6-2.6,12.2c-1.3,5.7-4.1,16.9-8.6,33.5L185.8,174.6L185.8,174.6z"/>
	<path class="st0" d="M285.7,218.1l-21.8-76.6h-0.7c1,13.1,1.5,23.2,1.5,30.4v46.2h-25.5V111.7h38.3l22.2,75.5h0.6l21.8-75.5h38.4
		v106.4h-26.4v-46.6c0-2.4,0-5.1,0.1-8.1c0.1-3,0.4-10.2,1-21.8h-0.6L313,218.1L285.7,218.1L285.7,218.1z"/>
	<path class="st0" d="M446,218.1h-63.2V111.7H446v23.1h-34.4v16.7h31.9v23.1h-31.9v20.1H446L446,218.1L446,218.1z"/>
</g>
<g>
	<path class="st0" d="M122.5,346V239.7h28.7v83.2h41V346H122.5z"/>
	<path class="st0" d="M308.2,292.7c0,17.9-4.4,31.5-13.2,40.8s-21.6,14-38.6,14c-16.7,0-29.5-4.7-38.4-14
		c-8.9-9.4-13.4-23-13.4-40.9c0-17.7,4.4-31.2,13.3-40.6c8.9-9.3,21.7-14,38.6-14c16.9,0,29.8,4.6,38.5,13.9
		C303.8,261.1,308.2,274.8,308.2,292.7z M235,292.7c0,20.6,7.1,30.9,21.5,30.9c7.3,0,12.7-2.5,16.2-7.5c3.5-5,5.3-12.8,5.3-23.4
		c0-10.6-1.8-18.5-5.4-23.5s-8.9-7.6-16-7.6C242.2,261.6,235,271.9,235,292.7z"/>
	<path class="st0" d="M417.1,290.6c0,17.8-4.9,31.4-14.7,41c-9.8,9.6-23.5,14.4-41.2,14.4h-34.4V239.7h36.8
		c17.1,0,30.3,4.4,39.5,13.1C412.4,261.5,417.1,274.1,417.1,290.6z M387.3,291.6c0-9.8-1.9-17-5.8-21.7s-9.7-7.1-17.6-7.1h-8.4v59.6
		h6.4c8.7,0,15.1-2.5,19.2-7.6C385.2,309.8,387.3,302,387.3,291.6z"/>
	<path class="st0" d="M478.3,283.8h45.9v57.3c-12.5,4.3-26.2,6.4-41.1,6.4c-16.4,0-29.1-4.8-38-14.3c-9-9.5-13.4-23.1-13.4-40.7
		c0-17.2,4.9-30.5,14.7-40.1c9.8-9.6,23.5-14.3,41.2-14.3c6.7,0,13,0.6,19,1.9c5.9,1.3,11.1,2.9,15.5,4.8l-9.1,22.6
		c-7.7-3.8-16.1-5.7-25.3-5.7c-8.4,0-14.9,2.7-19.5,8.2s-6.9,13.3-6.9,23.4c0,10,2.1,17.5,6.2,22.7s10.1,7.8,17.9,7.8
		c4.3,0,8.2-0.4,11.8-1.2V306h-19L478.3,283.8L478.3,283.8z"/>
	<path class="st0" d="M608.4,346h-63.2V239.7h63.2v23.1H574v16.7h31.9v23.1H574v20.1h34.4V346z"/>
</g>
<g>
	<path class="st1" d="M498.7,225.1c-12.6-14-25.1-27.8-37.7-41.7c5.4-6.4,10.8-12.6,16.1-18.8c0.2-0.2,0.4-0.4,0.6-0.7
		c1.7-2,1.7-2-0.1-4.1c-5.6-6.3-11.2-12.6-16.9-18.9c-0.7-0.8-0.7-1.2,0-2c3.4-4,6.7-8.1,10.1-12.1c7-8.3,14.1-16.5,21.1-24.8
		c1.5-1.8,3-3.5,4.7-5.5c10.6,11.2,21.2,22.3,31.9,33.6c9.1-10.7,18.3-21.5,27.5-32.3c20.5,20.3,39.4,42,58.1,63.9
		c-18.6,21.4-37.2,42.9-55.8,64.4c-10.3-11.4-20.5-22.7-30.8-34.1C517.8,203,508.3,214,498.7,225.1z M557.7,207
		c0.4-0.5,0.8-0.8,1.1-1.2c4.5-5.2,8.9-10.4,13.4-15.6c7.5-8.8,15-17.6,22.5-26.3c2.5-2.9,2.5-2.8,0-5.6c-0.1-0.1-0.2-0.2-0.3-0.3
		c-11-12.4-22.1-24.8-33.1-37.3c-1.3-1.5-2.7-3-4.1-4.5c-0.4,0.4-0.7,0.7-0.9,1c-4.3,5.2-8.6,10.4-12.9,15.6c-8,9.7-16,19.4-24,29.1
		c-0.9,1.1-0.6,1.7,0.2,2.6c9.3,10.3,18.5,20.6,27.7,30.9C550.7,199.2,554.1,203.1,557.7,207z M497.7,115.1c-1.2,1.4-2.3,2.7-3.3,4
		c-5.5,6.6-10.9,13.2-16.4,19.8c-0.8,0.9-0.9,1.6,0,2.6c5.9,6.6,11.6,13.3,17.5,19.9c0.7,0.8,0.7,1.2,0,2
		c-5.3,6.1-10.6,12.1-15.9,18.2c-1.5,1.7-1.5,1.7-0.1,3.5c0.4,0.5,0.8,1,1.3,1.5c5.6,6.2,11.1,12.4,16.7,18.6
		c0.2,0.3,0.5,0.5,0.8,0.7c0.2-0.1,0.3-0.2,0.3-0.2c6.4-7.4,12.7-14.9,19.1-22.2c0.8-1,0.8-1.5,0-2.4c-5.3-5.8-10.5-11.8-15.8-17.6
		c-0.6-0.7-0.6-1.1,0-1.8c5.8-6.7,11.5-13.5,17.3-20.2c0.7-0.9,0.8-1.4,0-2.2c-5.6-6.2-11.2-12.5-16.8-18.8
		C500.9,118.6,499.3,116.9,497.7,115.1z"/>
	<path class="st1" d="M571.5,168.4c-3.4,0.5-7-3-6.9-6.9c0.2-3.8,2.9-6.7,6.8-6.7c3.9,0,6.7,2.9,6.8,6.9
		C578.4,165,575.3,168.8,571.5,168.4z"/>
	<path class="st1" d="M545.7,168.6c-3.3,0.4-7-2.8-6.8-7.1c0.2-3.6,3.1-6.4,7-6.5c3.3-0.1,6.9,2.9,6.7,7.3
		C552.4,165.3,549.4,169,545.7,168.6z"/>
	<path class="st1" d="M558.8,168c3.2-0.3,6.8,2.8,6.7,7.1c-0.1,3.3-3.2,6.7-6.9,6.6c-4-0.1-6.7-2.8-6.7-7.1
		C551.9,170.8,554.7,168.1,558.8,168z"/>
	<path class="st1" d="M558.4,155.6c-3.9,0-6.7-2.7-6.7-6.6c0-4.1,2.8-6.9,6.8-7c3.4-0.1,7,2.9,6.8,7.1
		C565.3,152.3,562.3,156.1,558.4,155.6z"/>
	<path class="st1" d="M499.5,165.9c2.3,2.3,4.5,4.7,6.8,7.1c0.2,0.2,0.3,0.6,0.3,0.9c0.1,4.1,0.1,8.3,0.1,12.4
		c0,0.2-0.1,0.3-0.1,0.6c-4.9,0-9.7,0-14.6,0c0-0.3-0.1-0.6-0.1-0.9c0-3.8-0.1-7.7-0.1-11.5c0-0.7,0.4-1.5,0.8-2
		C494.8,170.5,497,168.4,499.5,165.9z"/>
	<path class="st1" d="M498.8,158.3c-2.2-2.3-4.5-4.7-6.7-7.1c-0.2-0.2-0.4-0.6-0.4-0.9c0-4.3,0-8.6,0-13c0.3,0,0.6-0.1,0.9-0.1
		c4.2,0,8.4-0.1,12.5-0.1c1,0,1.4,0.2,1.3,1.3c0,3.8,0.1,7.6,0.1,11.4c0,0.5-0.1,1.1-0.4,1.4C503.8,153.4,501.5,155.7,498.8,158.3z"
		/>
</g>
</svg>
